# xmcd
#
# Track frame offsets:
#	150
#	15284
#	27609
#	37139
#	46833
#	54942
#	67481
#	76484
#	81784
#	88940
#	96168
#	100203
#	119075
#	134726
#	152740
#	158971
#	164566
#	168227
#	181107
#	193901
#	204157
#	215447
#	219019
#
# Disc length: 3107 seconds
#
# Revision: 0
# Processed by: cddbd v1.5.1PL0 Copyright (c) Steve Scherf et al.
# Submitted via: EasyCDDAExtractor 4.5.0.2
#
DISCID=460c2117
DTITLE=цяиба циыта - писта стгм паяадосг
DYEAR=2004
DGENRE=дглотийа
TTITLE0=поукиа лоу сас паяайакы
TTITLE1=кекоудо лг стокифесаи
TTITLE2=цати лаяг цакиамтяа
TTITLE3=де соу пежтеи есема коцос
TTITLE4=апоье ломос пеяпаты
TTITLE5=г йаядиа соу есема лоиафеи
TTITLE6=петанес тг беяа
TTITLE7=еды с' аутг тг цеитомиа
TTITLE8=цкуйо лоу векидоми
TTITLE9=кебемтг лоу ле т' акоцо
TTITLE10=тсопамопоуко апоье
TTITLE11=пгяа тоу гкиоу тис калпес
TTITLE12=лиа йоййиможояелемг
TTITLE13=аццекы
TTITLE14=паяе лаяио тг яойа соу
TTITLE15=ема поуки латфоуяама лоу
TTITLE16=дуосле йаи басикийе лоу
TTITLE17=ам гхекес ма памтяеутеис
TTITLE18=елема г ламоука лоу
TTITLE19=аццекийоука 
TTITLE20=ягланам та выяиа лас
TTITLE21=фаваяоука
TTITLE22=амхисе йаи паки г алуцдакиа
EXTD=
EXTT0=
EXTT1=
EXTT2=
EXTT3=
EXTT4=
EXTT5=
EXTT6=
EXTT7=
EXTT8=
EXTT9=
EXTT10=
EXTT11=
EXTT12=
EXTT13=
EXTT14=
EXTT15=
EXTT16=
EXTT17=
EXTT18=
EXTT19=
EXTT20=
EXTT21=
EXTT22=
PLAYORDER=
